# Blender 4.3.2
# www.blender.org
o donut_template
v -0.000886 0.535830 -0.736239
v -0.091758 0.319154 -0.639516
v 0.090702 0.319455 -0.639516
v -0.000419 0.253425 -0.979341
v -0.111956 0.225295 -0.800113
v 0.111211 0.225664 -0.800113
v 0.000419 -0.253425 -0.979341
v -0.111211 -0.225664 -0.800113
v 0.111956 -0.225295 -0.800113
v 0.000886 -0.535830 -0.736239
v -0.090702 -0.319455 -0.639517
v 0.091758 -0.319154 -0.639517
v 0.001420 -0.859149 0.496030
v -0.097135 -0.342113 -0.565116
v 0.098266 -0.341790 -0.565116
v 0.000820 -0.496029 0.859150
v -0.132513 -0.268890 -0.444568
v 0.133402 -0.268451 -0.444568
v -0.000820 0.496029 0.859150
v -0.133402 0.268451 -0.444568
v 0.132513 0.268890 -0.444568
v -0.001420 0.859149 0.496031
v -0.098266 0.341790 -0.565116
v 0.097135 0.342113 -0.565116
vn 0.8728 0.3788 -0.3076
vn -0.8728 -0.3788 -0.3077
vn 0.0014 -0.8634 0.5044
vn -0.0000 -0.0000 1.0000
vn 0.8741 -0.3759 -0.3077
vn -0.0014 0.8634 0.5044
vn -0.9213 -0.3748 -0.1034
vn 0.9225 -0.3718 -0.1034
vn -0.9887 -0.1401 0.0529
vn -0.0016 0.9567 0.2912
vn 0.9892 -0.1368 0.0529
vn -0.0014 0.8545 -0.5194
vn -0.9948 -0.0016 0.1015
vn 0.9948 0.0016 0.1015
vn -0.9892 0.1368 0.0529
vn -0.0000 -0.0000 -1.0000
vn 0.9887 0.1401 0.0529
vn 0.0014 -0.8545 -0.5194
vn 0.0016 -0.9567 0.2912
vn -0.8741 0.3759 -0.3077
vn -0.8489 -0.0014 -0.5285
vn 0.9213 0.3748 -0.1034
vn -0.9225 0.3718 -0.1034
vn 0.8489 0.0014 -0.5285
s 0
f 6//1 4//1 1//1 3//1
f 11//2 8//2 7//2 10//2
f 3//3 2//3 5//3 6//3
f 8//4 9//4 6//4 5//4
f 12//5 10//5 7//5 9//5
f 9//6 8//6 11//6 12//6
f 13//7 14//7 11//7 10//7
f 15//8 13//8 10//8 12//8
f 17//9 14//9 13//9 16//9
f 14//10 15//10 12//10 11//10
f 18//11 16//11 13//11 15//11
f 15//12 14//12 17//12 18//12
f 19//13 20//13 17//13 16//13
f 21//14 19//14 16//14 18//14
f 23//15 20//15 19//15 22//15
f 20//16 21//16 18//16 17//16
f 24//17 22//17 19//17 21//17
f 21//18 20//18 23//18 24//18
f 24//19 23//19 2//19 3//19
f 5//20 2//20 1//20 4//20
f 7//21 8//21 5//21 4//21
f 22//22 24//22 3//22 1//22
f 23//23 22//23 1//23 2//23
f 9//24 7//24 4//24 6//24
